<?xml version="1.0"?>
<svg xmlns="http://www.w3.org/2000/svg" height="512px" viewBox="0 0 512 512" width="512px"><g><path d="m437.019531 74.980469c-48.351562-48.351563-112.640625-74.980469-181.019531-74.980469s-132.667969 26.628906-181.019531 74.980469c-48.351563 48.351562-74.980469 112.640625-74.980469 181.019531 0 45.105469 11.835938 89.230469 34.285156 128.039062l-34.285156 127.960938 127.960938-34.285156c38.808593 22.449218 82.933593 34.285156 128.039062 34.285156 68.378906 0 132.667969-26.628906 181.019531-74.980469 48.351563-48.351562 74.980469-112.640625 74.980469-181.019531s-26.628906-132.667969-74.980469-181.019531zm-181.019531 407.019531c-41.753906 0-82.546875-11.480469-117.964844-33.199219l-5.496094-3.371093-90.113281 24.144531 24.144531-90.113281-3.371093-5.496094c-21.71875-35.417969-33.199219-76.210938-33.199219-117.964844 0-124.617188 101.382812-226 226-226s226 101.382812 226 226-101.382812 226-226 226zm0 0" data-original="#000000" class="active-path" data-old_color="#E2DADA" fill="#FFFFFF"/><path d="m256 91c-90.980469 0-165 74.019531-165 165s74.019531 165 165 165 165-74.019531 165-165-74.019531-165-165-165zm62.542969 206.328125c7.863281-11.859375 12.457031-26.0625 12.457031-41.328125s-4.59375-29.46875-12.457031-41.328125l42.886719-42.886719c18.492187 23.101563 29.570312 52.386719 29.570312 84.214844s-11.078125 61.113281-29.570312 84.214844zm-107.542969-41.328125c0-24.8125 20.1875-45 45-45s45 20.1875 45 45-20.1875 45-45 45-45-20.1875-45-45zm129.214844-105.429688-42.886719 42.886719c-11.859375-7.863281-26.0625-12.457031-41.328125-12.457031s-29.46875 4.59375-41.328125 12.457031l-42.886719-42.886719c23.101563-18.492187 52.386719-29.570312 84.214844-29.570312s61.113281 11.078125 84.214844 29.570312zm-189.644532 21.214844 42.886719 42.886719c-7.863281 11.855469-12.457031 26.0625-12.457031 41.328125s4.59375 29.472656 12.457031 41.328125l-42.886719 42.886719c-18.492187-23.101563-29.570312-52.386719-29.570312-84.214844s11.078125-61.113281 29.570312-84.214844zm21.214844 189.644532 42.886719-42.886719c11.859375 7.863281 26.0625 12.457031 41.328125 12.457031s29.46875-4.59375 41.328125-12.457031l42.886719 42.886719c-23.101563 18.492187-52.386719 29.570312-84.214844 29.570312s-61.113281-11.078125-84.214844-29.570312zm0 0" data-original="#000000" class="active-path" data-old_color="#E2DADA" fill="#FFFFFF"/></g> </svg>
