<?xml version="1.0"?>
<svg xmlns="http://www.w3.org/2000/svg" height="512px" viewBox="0 0 512.00066 512" width="512px"><g transform="matrix(1 -2.44929e-16 2.44929e-16 1 -1.13687e-13 0)"><path d="m256.003906 0c-141.386718 0-255.99999975 114.613281-255.99999975 256 0 54.507812 17.04687475 105.027344 46.08593775 146.542969l-44.488282 88.492187c-6.222656 12.382813 6.898438 25.5625 19.308594 19.390625l88.953125-44.234375c41.441407 28.867188 91.808594 45.808594 146.140625 45.808594 141.382813 0 255.996094-114.617188 255.996094-256s-114.613281-256-255.996094-256zm0 0" fill="#e9e3d5" data-original="#E9E3D5"/><path d="m109.859375 466.191406c41.441406 28.867188 91.808594 45.804688 146.140625 45.804688 141.382812 0 255.996094-114.613282 255.996094-255.996094 0-81.796875-38.363282-154.632812-98.078125-201.5-10.855469 12.238281-10.347657 30.738281 1.246093 42.335938 42.515626 42.511718 65.929688 99.039062 65.929688 159.164062s-23.414062 116.648438-65.929688 159.164062c-42.515624 42.515626-99.039062 65.929688-159.164062 65.929688-32.835938 0-64.433594-6.867188-93.90625-20.40625-12.054688-5.539062-23.699219-12.210938-34.605469-19.824219-5.207031-3.636719-11.316406-5.558593-17.671875-5.558593-4.746094 0-9.503906 1.117187-13.753906 3.234374l-90.761719 45.128907-3.703125 7.367187c-6.222656 12.382813 6.898438 25.5625 19.308594 19.390625zm0 0" fill="#d3cdbf" data-original="#D3CDBF" class=""/><path d="m256.003906 302.097656c-25.421875 0-46.101562-20.679687-46.101562-46.097656 0-25.421875 20.679687-46.101562 46.101562-46.101562 25.417969 0 46.101563 20.679687 46.101563 46.101562 0 25.417969-20.683594 46.097656-46.101563 46.097656zm79.875-147.476562-.011718.042968 3.917968-13.71875c.925782-3.234374-.332031-6.71875-3.148437-8.558593-4.429688-2.894531-9.027344-5.554688-13.769531-7.96875-3.003907-1.527344-6.660157-.878907-9.003907 1.542969l-9.90625 10.242187c-9.332031-3.738281-19.199219-6.414063-29.453125-7.886719l-3.464844-13.832031c-.828124-3.304687-3.722656-5.660156-7.128906-5.84375-2.617187-.140625-5.253906-.214844-7.90625-.214844-2.605468 0-5.195312.070313-7.765625.207031-3.40625.183594-6.304687 2.539063-7.132812 5.847657l-3.460938 13.816406c-10.269531 1.460937-20.152343 4.132813-29.496093 7.867187l-9.914063-10.25c-2.34375-2.421874-5.996094-3.070312-9-1.542968-4.734375 2.402344-9.320313 5.054687-13.742187 7.9375-2.820313 1.839844-4.082032 5.328125-3.15625 8.566406l3.917968 13.710938c-8.027344 6.320312-15.28125 13.574218-21.605468 21.59375l-13.722657-3.921876c-3.234375-.925781-6.722656.332032-8.5625 3.152344-2.882812 4.417969-5.535156 9-7.941406 13.726563-1.527344 3.003906-.878906 6.660156 1.542969 9.003906l10.242187 9.910156c-3.746093 9.355469-6.429687 19.25-7.898437 29.539063l-13.820313 3.460937c-3.308593.828125-5.664062 3.726563-5.84375 7.132813-.140625 2.585937-.210937 5.195312-.210937 7.816406 0 2.625.070312 5.230469.210937 7.820312.179688 3.402344 2.535157 6.304688 5.84375 7.132813l13.820313 3.457031c1.46875 10.289063 4.148437 20.183594 7.898437 29.539063l-10.242187 9.910156c-2.421875 2.34375-3.070313 6-1.542969 9.003906 2.40625 4.726563 5.058594 9.308594 7.941406 13.726563 1.839844 2.816406 5.324219 4.078125 8.5625 3.152344l13.769531-3.933594 53.453126 40.027344 163.238281-51.84375-35.519531-169.328126zm0 0" fill="#6c7a88" data-original="#6C7A88"/><g fill="#596775"><path d="m397.519531 270.984375c3.308594-.828125 5.660157-3.726563 5.84375-7.132813.140625-2.597656.210938-5.214843.210938-7.851562s-.070313-5.253906-.210938-7.855469c-.183593-3.402343-2.535156-6.304687-5.84375-7.128906l-13.824219-3.460937c-1.480468-10.316407-4.207031-20.28125-7.855468-29.410157l10.246094-9.914062c2.421874-2.34375 3.070312-6 1.542968-9.003907-2.410156-4.746093-5.070312-9.347656-7.960937-13.78125-1.839844-2.820312-5.328125-4.082031-8.566407-3.15625l-13.71875 3.921876c-6.117187-7.769532-13.480468-15.191407-21.519531-21.539063l-4.195312 14.6875c-3.484375 12.191406-1.867188 25.355469 4.804687 36.136719.046875.070312.085938.136718.128906.207031 23.167969 37.117187 17.519532 86.519531-13.429687 117.46875-17.90625 17.910156-41.761719 27.773437-67.167969 27.773437-17.992187 0-35.4375-4.988281-50.453125-14.421874-.066406-.042969-.132812-.085938-.203125-.125-10.679687-6.65625-23.75-8.277344-35.847656-4.820313l-14.808594 4.230469c-.015625.003906-.03125.007812-.046875.011718l.015625.019532.015625.023437.015625.015625c6.40625 7.992188 13.214844 14.96875 21.558594 21.535156l-3.917969 13.714844c-.925781 3.238282.335938 6.726563 3.15625 8.5625 4.421875 2.886719 9.007813 5.535156 13.742188 7.941406 3.003906 1.523438 6.660156.875 9-1.546874l9.914062-10.246094c9.425781 3.765625 19.449219 6.429687 29.496094 7.867187l3.460937 13.816407c.816407 3.265624 3.65625 5.65625 7.019532 5.839843 5.253906.28125 10.503906.289063 15.894531-.007812 3.363281-.183594 6.203125-2.574219 7.023437-5.839844l3.460938-13.828125c10.257812-1.472656 20.125-4.148438 29.453125-7.886719l9.90625 10.242188c2.34375 2.421875 6.003906 3.070312 9.007813 1.542969 4.742187-2.414063 9.335937-5.074219 13.765624-7.96875 2.816407-1.839844 4.078126-5.324219 3.152344-8.558594l-3.921875-13.730469c7.988281-6.304687 15.21875-13.539063 21.519531-21.53125l13.71875 3.917969c3.238282.925781 6.722657-.335938 8.5625-3.15625 2.894532-4.433594 5.554688-9.03125 7.964844-13.78125 1.527344-3.003906.875-6.660156-1.542968-9l-10.25-9.914063c3.726562-9.316406 6.390624-19.171875 7.859374-29.410156zm0 0" data-original="#000000" class="active-path" style="fill:#000000"/><path d="m256.003906 327.679688c-39.527344 0-71.683594-32.15625-71.683594-71.679688 0-39.527344 32.15625-71.683594 71.683594-71.683594 39.523438 0 71.679688 32.15625 71.679688 71.683594 0 39.523438-32.15625 71.679688-71.679688 71.679688zm0-107.738282c-19.882812 0-36.058594 16.175782-36.058594 36.058594 0 19.878906 16.175782 36.054688 36.058594 36.054688 19.878906 0 36.054688-16.175782 36.054688-36.054688 0-19.882812-16.175782-36.058594-36.054688-36.058594zm0 0" data-original="#000000" class="active-path" style="fill:#000000"/></g></g> </svg>
