<?xml version="1.0"?>
<svg xmlns="http://www.w3.org/2000/svg" height="512px" viewBox="0 0 512 512" width="512px"><g><path d="m452.671875 0h-393.34375c-32.714844 0-59.328125 26.613281-59.328125 59.328125v314.675781c0 32.714844 26.613281 59.328125 59.328125 59.328125h109.722656l72.808594 72.8125c7.804687 7.804688 20.472656 7.804688 28.28125 0l72.808594-72.8125h109.722656c32.714844 0 59.328125-26.613281 59.328125-59.328125v-314.675781c0-32.714844-26.613281-59.328125-59.328125-59.328125zm19.328125 374.003906c0 10.65625-8.671875 19.328125-19.328125 19.328125h-118.003906c-5.304688 0-10.394531 2.109375-14.144531 5.859375l-64.523438 64.523438-64.523438-64.523438c-3.75-3.75-8.839843-5.855468-14.140624-5.855468h-118.007813c-10.65625 0-19.328125-8.675782-19.328125-19.332032v-314.675781c0-10.65625 8.671875-19.328125 19.328125-19.328125h393.34375c10.65625 0 19.328125 8.671875 19.328125 19.328125zm-137.085938-220.042968c1.40625 30.597656-14.4375 58.652343-41.355468 73.21875-10.828125 5.863281-17.558594 16.804687-17.558594 28.558593v.261719c0 11.046875-8.953125 20-20 20s-20-8.953125-20-20c.027344-.101562-1.847656-42.148438 38.519531-63.996094 13.300781-7.199218 21.132813-21.070312 20.4375-36.203125-.914062-19.882812-17.207031-36.175781-37.089843-37.089843-22.464844-1.03125-40.867188 16.8125-40.867188 38.957031 0 11.046875-8.953125 20-20 20s-20-8.953125-20-20c0-45.183594 37.679688-81.035157 82.703125-78.914063 40.585937 1.863282 73.347656 34.683594 75.210937 75.207032zm-58.914062 160.707031v20c0 11.046875-8.953125 20-20 20s-20-8.953125-20-20v-20c0-11.046875 8.953125-20 20-20s20 8.953125 20 20zm0 0" data-original="#000000" class="active-path" data-old_color="#000000" fill="#efefef "/></g> </svg>
