<?xml version="1.0"?>
<svg xmlns="http://www.w3.org/2000/svg" xmlns:xlink="http://www.w3.org/1999/xlink" version="1.1" id="Layer_1" x="0px" y="0px" viewBox="0 0 512 512" style="enable-background:new 0 0 512 512;" xml:space="preserve" width="512px" height="512px" class=""><g><g>
	<g>
		<path d="M256,256.288c-8.848,0-16,7.152-16,16v112c0,8.848,7.152,16,16,16c8.848,0,16-7.152,16-16v-112    C272,263.44,264.848,256.288,256,256.288z" data-original="#000000" class="active-path" data-old_color="#000000" fill="#FFFFFF"/>
	</g>
</g><g>
	<g>
		<path d="M268.688,255.168l-78.624-105.376c-5.296-7.088-15.328-8.528-22.384-3.264c-7.088,5.28-8.544,15.312-3.264,22.384    l78.624,105.376c3.152,4.208,7.968,6.432,12.848,6.432c3.328,0,6.688-1.024,9.536-3.168    C272.512,272.272,273.968,262.24,268.688,255.168z" data-original="#000000" class="active-path" data-old_color="#000000" fill="#FFFFFF"/>
	</g>
</g><g>
	<g>
		<path d="M344.048,146.528c-7.04-5.264-17.104-3.824-22.384,3.264L243.04,255.168c-5.28,7.072-3.824,17.104,3.264,22.384    c2.864,2.144,6.224,3.168,9.552,3.168c4.88,0,9.712-2.208,12.832-6.432l78.624-105.376    C352.592,161.84,351.136,151.808,344.048,146.528z" data-original="#000000" class="active-path" data-old_color="#000000" fill="#FFFFFF"/>
	</g>
</g><g>
	<g>
		<path d="M336,256.288H176c-8.848,0-16,7.152-16,16c0,8.848,7.152,16,16,16h160c8.848,0,16-7.152,16-16    C352,263.44,344.848,256.288,336,256.288z" data-original="#000000" class="active-path" data-old_color="#000000" fill="#FFFFFF"/>
	</g>
</g><g>
	<g>
		<path d="M336,304.288H176c-8.848,0-16,7.152-16,16c0,8.848,7.152,16,16,16h160c8.848,0,16-7.152,16-16    C352,311.44,344.848,304.288,336,304.288z" data-original="#000000" class="active-path" data-old_color="#000000" fill="#FFFFFF"/>
	</g>
</g><g>
	<g>
		<path d="M256,0C114.848,0,0,114.848,0,256s114.848,256,256,256s256-114.848,256-256S397.152,0,256,0z M256,480    C132.48,480,32,379.52,32,256S132.48,32,256,32s224,100.48,224,224S379.52,480,256,480z" data-original="#000000" class="active-path" data-old_color="#000000" fill="#FFFFFF"/>
	</g>
</g></g> </svg>
